<svg width="134" height="40" viewBox="0 0 134 40" fill="none" xmlns="http://www.w3.org/2000/svg">
<g clip-path="url(#clip0_62_128)">
<path fill-rule="evenodd" clip-rule="evenodd" d="M83.1021 31.2813C75.3796 36.9667 64.1864 40.0001 54.5492 40.0001C41.0363 40.0001 28.8712 35.008 19.6678 26.7053C18.9448 26.0524 19.5926 25.1626 20.4603 25.671C30.3926 31.4431 42.6733 34.9156 55.359 34.9156C63.9145 34.9156 73.3261 33.1475 81.9799 29.4786C83.2872 28.9239 84.3805 30.3337 83.1021 31.2813Z" fill="#999999"/>
<path fill-rule="evenodd" clip-rule="evenodd" d="M86.3126 27.6125C85.3292 26.353 79.7875 27.0174 77.3001 27.3121C76.5423 27.4045 76.4266 26.7458 77.1092 26.2721C81.5229 23.1694 88.7653 24.0649 89.6098 25.1049C90.4544 26.1507 89.39 33.4019 85.2424 36.8628C84.6061 37.3944 83.9987 37.1113 84.2822 36.4064C85.2135 34.0837 87.3018 28.8779 86.3126 27.6125Z" fill="#999999"/>
<path fill-rule="evenodd" clip-rule="evenodd" d="M77.4737 4.36806V1.35203C77.4737 0.895581 77.8208 0.589355 78.2373 0.589355H91.756C92.1898 0.589355 92.5369 0.901359 92.5369 1.35203V3.93472C92.5311 4.36806 92.1667 4.93429 91.5188 5.82985L84.5136 15.8197C87.1167 15.7562 89.8644 16.1433 92.2245 17.4722C92.7567 17.7726 92.9013 18.2118 92.9418 18.6451V21.8634C92.9418 22.3025 92.4559 22.8167 91.9468 22.5509C87.7877 20.3727 82.2634 20.1358 77.6646 22.574C77.196 22.8283 76.7043 22.3198 76.7043 21.8807V18.8242C76.7043 18.3331 76.7101 17.4953 77.2018 16.75L85.3177 5.12496H78.2546C77.8208 5.12496 77.4737 4.81873 77.4737 4.36806Z" fill="#999999"/>
<path fill-rule="evenodd" clip-rule="evenodd" d="M28.1597 23.1864H24.0468C23.6534 23.1575 23.3411 22.8628 23.3121 22.4873V1.40394C23.3121 0.98216 23.665 0.647043 24.1046 0.647043H27.9398C28.339 0.664365 28.6571 0.970601 28.6861 1.35194V4.10797H28.7613C29.762 1.44438 31.642 0.202148 34.1757 0.202148C36.7498 0.202148 38.358 1.44438 39.5149 4.10797C40.5098 1.44438 42.7716 0.202148 45.1954 0.202148C46.9192 0.202148 48.805 0.912822 49.9562 2.50751C51.2577 4.2813 50.9916 6.85822 50.9916 9.11735L50.9858 22.4237C50.9858 22.8455 50.633 23.1864 50.1933 23.1864H46.0862C45.6755 23.1575 45.3458 22.8282 45.3458 22.4237V11.2494C45.3458 10.3596 45.4268 8.1409 45.2301 7.29733C44.9235 5.88177 44.0038 5.48309 42.8121 5.48309C41.8172 5.48309 40.7759 6.14754 40.3537 7.21067C39.9314 8.27379 39.9719 10.0534 39.9719 11.2494V22.4237C39.9719 22.8455 39.619 23.1864 39.1794 23.1864H35.0723C34.6558 23.1575 34.3319 22.8282 34.3319 22.4237L34.3261 11.2494C34.3261 8.8978 34.7136 5.43687 31.7924 5.43687C28.8365 5.43687 28.9522 8.81112 28.9522 11.2494V22.4237C28.9522 22.8455 28.5993 23.1864 28.1597 23.1864Z" fill="#999999"/>
<path fill-rule="evenodd" clip-rule="evenodd" d="M104.176 0.202148C110.278 0.202148 113.581 5.43687 113.581 12.0929C113.581 18.5237 109.931 23.6255 104.176 23.6255C98.1827 23.6255 94.9202 18.3908 94.9202 11.8676C94.9202 5.30398 98.2232 0.202148 104.176 0.202148ZM104.21 4.50664C101.179 4.50664 100.988 8.63201 100.988 11.2032C100.988 13.7801 100.948 19.2806 104.176 19.2806C107.363 19.2806 107.513 14.8432 107.513 12.1392C107.513 10.3596 107.438 8.23334 106.9 6.54621C106.437 5.07865 105.518 4.50664 104.21 4.50664Z" fill="#999999"/>
<path fill-rule="evenodd" clip-rule="evenodd" d="M121.495 23.1864H117.399C116.989 23.1575 116.659 22.8282 116.659 22.4237L116.653 1.3346C116.688 0.947489 117.029 0.647043 117.446 0.647043H121.258C121.616 0.664365 121.911 0.907046 121.992 1.23638V4.46041H122.067C123.219 1.57727 124.832 0.202148 127.673 0.202148C129.518 0.202148 131.317 0.866601 132.474 2.68662C133.55 4.37375 133.55 7.21067 133.55 9.25024V22.5219C133.504 22.8917 133.162 23.1864 132.757 23.1864H128.633C128.257 23.1575 127.945 22.8802 127.904 22.5219V11.0703C127.904 8.7649 128.17 5.39065 125.33 5.39065C124.329 5.39065 123.409 6.06088 122.952 7.07777C122.374 8.36623 122.299 9.64891 122.299 11.0703V22.4237C122.293 22.8455 121.934 23.1864 121.495 23.1864Z" fill="#999999"/>
<path fill-rule="evenodd" clip-rule="evenodd" d="M66.6969 13.1157C66.6969 14.7162 66.7374 16.0508 65.9276 17.4722C65.2739 18.6278 64.2327 19.3384 63.0815 19.3384C61.5023 19.3384 60.5768 18.1366 60.5768 16.3628C60.5768 12.8615 63.7178 12.2259 66.6969 12.2259V13.1157ZM70.8445 23.1287C70.5726 23.3714 70.1793 23.3887 69.8727 23.2269C68.5075 22.0945 68.2588 21.5687 67.5126 20.4882C65.2566 22.7878 63.6542 23.4754 60.733 23.4754C57.268 23.4754 54.5781 21.3433 54.5781 17.0735C54.5781 13.7397 56.3829 11.469 58.9629 10.3597C61.1957 9.37743 64.3137 9.2041 66.6969 8.93254V8.40098C66.6969 7.42452 66.7721 6.26895 66.1937 5.42539C65.6962 4.66849 64.7359 4.35649 63.8856 4.35649C62.318 4.35649 60.9239 5.15961 60.5826 6.82363C60.5132 7.19341 60.2413 7.55741 59.8653 7.57475L55.8797 7.14718C55.5442 7.07208 55.1682 6.80051 55.2665 6.28629C56.1805 1.45602 60.5537 0 64.4641 0C66.4655 0 69.0802 0.531562 70.6594 2.04535C72.6609 3.9116 72.47 6.40184 72.47 9.11165V15.5135C72.47 17.4375 73.2683 18.2811 74.0203 19.3211C74.2806 19.6909 74.3384 20.1358 74.0029 20.4131C73.1641 21.1122 71.6717 22.4122 70.8503 23.1402L70.8445 23.1287Z" fill="#999999"/>
<path fill-rule="evenodd" clip-rule="evenodd" d="M12.7784 13.1157C12.7784 14.7162 12.8188 16.0508 12.009 17.4722C11.3553 18.6278 10.3199 19.3384 9.16295 19.3384C7.58375 19.3384 6.66399 18.1366 6.66399 16.3628C6.66399 12.8615 9.80505 12.2259 12.7784 12.2259V13.1157ZM16.9259 23.1287C16.6541 23.3714 16.2607 23.3887 15.9541 23.2269C14.5889 22.0945 14.346 21.5687 13.594 20.4882C11.338 22.7878 9.74142 23.4754 6.81439 23.4754C3.35518 23.4754 0.659546 21.3433 0.659546 17.0735C0.659546 13.7397 2.47014 11.469 5.0443 10.3597C7.27716 9.37743 10.3951 9.2041 12.7784 8.93254V8.40098C12.7784 7.42452 12.8536 6.26895 12.2809 5.42539C11.7776 4.66849 10.8174 4.35649 9.9728 4.35649C8.40517 4.35649 7.00529 5.15961 6.66399 6.82363C6.59458 7.19341 6.3227 7.55741 5.95248 7.57475L1.96109 7.14718C1.62558 7.07208 1.25536 6.80051 1.34792 6.28629C2.26767 1.45602 6.63507 0 10.5455 0C12.547 0 15.1616 0.531562 16.7408 2.04535C18.7423 3.9116 18.5514 6.40184 18.5514 9.11165V15.5135C18.5514 17.4375 19.3497 18.2811 20.1017 19.3211C20.3678 19.6909 20.4256 20.1358 20.0901 20.4131C19.2513 21.1122 17.7589 22.4122 16.9375 23.1402L16.9259 23.1287Z" fill="#999999"/>
</g>
<defs>
<clipPath id="clip0_62_128">
<rect width="132.89" height="40" fill="white" transform="translate(0.659546)"/>
</clipPath>
</defs>
</svg>
