<svg width="128" height="40" viewBox="0 0 128 40" fill="none" xmlns="http://www.w3.org/2000/svg">
<g clip-path="url(#clip0_62_120)">
<path d="M15.9689 14.2727V18.5455H26.2802C26.0064 20.9091 25.1852 22.7273 23.9077 23.9091C22.4476 25.3636 20.0751 27 15.9689 27C9.67256 27 4.74503 21.9091 4.74503 15.6364C4.74503 9.36364 9.58131 4.27273 15.9689 4.27273C19.3451 4.27273 21.9001 5.63636 23.7252 7.36364L26.7364 4.36364C24.1814 1.90909 20.7139 0 15.9689 0C7.30005 0 0 7 0 15.6364C0 24.2727 7.30005 31.2727 15.9689 31.2727C20.6226 31.2727 24.1814 29.7273 26.9189 26.9091C29.7477 24.0909 30.6602 20.0909 30.6602 16.9091C30.6602 15.9091 30.569 15 30.4777 14.2727H15.9689Z" fill="#999999"/>
<path d="M43.4353 10.7271C37.869 10.7271 33.2152 14.9998 33.2152 20.818C33.2152 26.6361 37.7777 30.9089 43.4353 30.9089C49.0928 30.9089 53.6553 26.727 53.6553 20.9089C53.6553 14.9998 49.0928 10.7271 43.4353 10.7271ZM43.4353 26.9998C40.3328 26.9998 37.6865 24.4543 37.6865 20.9089C37.6865 17.2725 40.3328 14.818 43.4353 14.818C46.5378 14.818 49.1841 17.2725 49.1841 20.9089C49.1841 24.4543 46.5378 26.9998 43.4353 26.9998Z" fill="#999999"/>
<path d="M93.3494 12.9998H93.1669C92.1631 11.818 90.2469 10.7271 87.7831 10.7271C82.6731 10.7271 78.293 15.0907 78.293 20.818C78.293 26.4543 82.6731 30.9089 87.7831 30.9089C90.2469 30.9089 92.1631 29.818 93.1669 28.6361H93.3494V30.0907C93.3494 33.9089 91.2506 35.9998 87.9656 35.9998C85.2281 35.9998 83.5856 34.0907 82.8556 32.3634L79.023 33.9998C80.118 36.6361 83.1293 39.9998 88.0568 39.9998C93.2581 39.9998 97.7294 36.9089 97.7294 29.4543V11.2725H93.5319V12.9998H93.3494ZM88.2393 26.9998C85.1368 26.9998 82.8556 24.3634 82.8556 20.9089C82.8556 17.3634 85.2281 14.818 88.2393 14.818C91.2506 14.818 93.6231 17.4543 93.6231 20.9998C93.7144 24.4543 91.3419 26.9998 88.2393 26.9998Z" fill="#999999"/>
<path d="M66.1567 10.7271C60.5904 10.7271 55.9366 14.9998 55.9366 20.818C55.9366 26.6361 60.4991 30.9089 66.1567 30.9089C71.8142 30.9089 76.3767 26.727 76.3767 20.9089C76.3767 14.9998 71.8142 10.7271 66.1567 10.7271ZM66.1567 26.9998C63.0541 26.9998 60.4079 24.4543 60.4079 20.9089C60.4079 17.2725 63.0541 14.818 66.1567 14.818C69.2592 14.818 71.9054 17.2725 71.9054 20.9089C71.9054 24.4543 69.2592 26.9998 66.1567 26.9998Z" fill="#999999"/>
<path d="M101.106 0.45459H105.486V31H101.106V0.45459Z" fill="#999999"/>
<path d="M118.991 26.9998C116.709 26.9998 115.158 25.9998 114.063 23.9089L127.66 18.3634L127.203 17.1816C126.382 14.9089 123.736 10.7271 118.534 10.7271C113.333 10.7271 108.953 14.818 108.953 20.818C108.953 26.4543 113.242 30.9089 118.991 30.9089C123.645 30.9089 126.291 28.0907 127.477 26.4543L124.01 24.1816C122.823 25.9089 121.272 26.9998 118.991 26.9998ZM118.717 14.5452C120.542 14.5452 122.093 15.4543 122.55 16.727L113.424 20.5452C113.333 16.3634 116.436 14.5452 118.717 14.5452Z" fill="#999999"/>
</g>
<defs>
<clipPath id="clip0_62_120">
<rect width="127.66" height="40" fill="white"/>
</clipPath>
</defs>
</svg>
